<svg width="304" height="149" viewBox="0 0 304 149" fill="none" xmlns="http://www.w3.org/2000/svg">
<g opacity="0.8">
<path d="M41.8379 111.092C51.0739 111.092 59.9316 107.193 66.4624 100.254C72.9932 93.3154 76.6622 83.9041 76.6622 74.0909C76.6622 64.2777 72.9932 54.8664 66.4624 47.9274C59.9316 40.9884 51.0739 37.0902 41.8379 37.0901L41.8379 74.0909L41.8379 111.092Z" fill="#5A5A5A"/>
<path d="M187.659 111.092C196.895 111.092 205.753 107.193 212.284 100.254C218.815 93.3154 222.484 83.9041 222.484 74.0909C222.484 64.2777 218.815 54.8664 212.284 47.9274C205.753 40.9884 196.895 37.0902 187.659 37.0901L187.659 74.0909V111.092Z" fill="#939393"/>
<path d="M262.746 37.0894C262.746 41.9484 261.817 46.7598 260.012 51.249C258.208 55.7381 255.562 59.817 252.228 63.2529C248.893 66.6887 244.934 69.4142 240.577 71.2736C236.22 73.1331 231.55 74.0901 226.834 74.0901V37.0894H262.746Z" fill="#1A1A1A"/>
<path d="M226.686 74.1051C231.392 74.103 236.053 75.0578 240.401 76.9149C244.75 78.772 248.702 81.4951 252.031 84.9287C255.36 88.3623 258.002 92.4392 259.805 96.9265C261.608 101.414 262.537 106.224 262.539 111.082L226.702 111.098L226.686 74.1051Z" fill="#5A5A5A"/>
<path d="M263.837 37.0912H290.214C297.283 37.0912 303.014 42.8219 303.014 49.8912V74.0919H276.637C269.568 74.0919 263.837 68.3612 263.837 61.2919V37.0912Z" fill="#5A5A5A"/>
<path d="M0 37.0912H26.3773C33.4465 37.0912 39.1773 42.8219 39.1773 49.8912V74.0919H12.8C5.73076 74.0919 0 68.3612 0 61.2919V37.0912Z" fill="#939393"/>
<path d="M263.837 111.111V86.91C263.837 79.8407 269.568 74.11 276.637 74.11H303.014V98.3107C303.014 105.38 297.283 111.111 290.214 111.111H263.837Z" fill="#191919"/>
<path d="M0 111.111L0 86.91C0 79.8407 5.73076 74.11 12.8 74.11H39.1773V98.3107C39.1773 105.38 33.4465 111.111 26.3773 111.111H0Z" fill="#191919"/>
<path d="M187.659 111.092C178.423 111.092 169.566 107.193 163.035 100.254C156.504 93.3154 152.835 83.9041 152.835 74.0909C152.835 64.2777 156.504 54.8664 163.035 47.9274C169.566 40.9884 178.423 37.0902 187.659 37.0901L187.659 74.0909V111.092Z" fill="#333333"/>
<path d="M78.8379 111.092C83.4111 111.092 87.9395 110.135 92.1646 108.275C96.3897 106.416 100.229 103.69 103.462 100.254C106.696 96.8186 109.261 92.7396 111.011 88.2505C112.761 83.7613 113.662 78.9499 113.662 74.0909H78.8379L78.8379 111.092Z" fill="#939393"/>
<path d="M113.64 74.1773C109.086 74.1921 104.573 73.2499 100.359 71.4046C96.1455 69.5592 92.3134 66.8468 89.0819 63.4222C85.8503 59.9976 83.2825 55.9278 81.5251 51.4454C79.7676 46.9629 78.8549 42.1555 78.8391 37.2975L113.52 37.1848L113.64 74.1773Z" fill="#333333"/>
<path d="M113.661 74.0629C113.661 69.4897 114.618 64.9613 116.477 60.7362C118.337 56.5111 121.062 52.6721 124.498 49.4384C127.934 46.2046 132.013 43.6395 136.502 41.8894C140.991 40.1393 145.802 39.2386 150.661 39.2386V74.0629H113.661Z" fill="#939393"/>
<path d="M113.652 74.1043C118.226 74.1043 122.754 75.0613 126.979 76.9208C131.204 78.7802 135.043 81.5057 138.277 84.9415C141.511 88.3774 144.076 92.4563 145.826 96.9454C147.576 101.435 148.477 106.246 148.477 111.105H113.652V74.1043Z" fill="#333333"/>
</g>
</svg>
