<svg width="26" height="26" viewBox="0 0 26 26" fill="none" xmlns="http://www.w3.org/2000/svg">
<path fill-rule="evenodd" clip-rule="evenodd" d="M9.49954 1.00049C9.2234 1.00049 8.99954 1.22435 8.99954 1.50049V24.5005C8.99954 24.7766 9.2234 25.0005 9.49954 25.0005H11.4995C11.7757 25.0005 11.9995 24.7766 11.9995 24.5005V1.50049C11.9995 1.22435 11.7757 1.00049 11.4995 1.00049H9.49954ZM3.49954 15.0005C3.2234 15.0005 2.99954 15.2243 2.99954 15.5005V24.5005C2.99954 24.7766 3.2234 25.0005 3.49954 25.0005H5.49954C5.77568 25.0005 5.99954 24.7766 5.99954 24.5005V15.5005C5.99954 15.2243 5.77568 15.0005 5.49954 15.0005H3.49954ZM20.9995 5.50049C20.9995 5.22435 21.2234 5.00049 21.4995 5.00049H23.4995C23.7757 5.00049 23.9995 5.22435 23.9995 5.50049V24.5005C23.9995 24.7766 23.7757 25.0005 23.4995 25.0005H21.4995C21.2234 25.0005 20.9995 24.7766 20.9995 24.5005V5.50049ZM15.4995 11.0005C15.2234 11.0005 14.9995 11.2243 14.9995 11.5005V24.5005C14.9995 24.7766 15.2234 25.0005 15.4995 25.0005H17.4995C17.7757 25.0005 17.9995 24.7766 17.9995 24.5005V11.5005C17.9995 11.2243 17.7757 11.0005 17.4995 11.0005H15.4995Z" fill="white" fill-opacity="0.7"/>
</svg>
